<!--?xml version="1.0" encoding="utf-8"?-->
<!-- Svg Vector Icons : http://www.onlinewebfonts.com/icon -->

<svg version="1.1" xmlns="http://www.w3.org/2000/svg" xmlns:xlink="http://www.w3.org/1999/xlink" x="0px" y="0px" viewBox="0 0 256 256" enable-background="new 0 0 256 256" xml:space="preserve">
<metadata> Svg Vector Icons : http://www.onlinewebfonts.com/icon </metadata>
<g><g><g><path fill="#f0efef" data-title="Layer 0" xs="0" d="M67,10.8c-5.3,0.9-14.2,3.8-18.9,6.2c-19.6,9.8-33.7,28.8-37.2,50.4c-1.2,7.6-1.2,113.6,0,121.2c2.3,14.2,8.9,26.9,19.3,37.3c8,8.1,16.1,13.1,26.8,16.7c9.5,3.2,12.7,3.4,44.7,3.4h28.5v-43.7v-43.7h-14.7h-14.7v-18.8V121h14.7h14.7v-12c0-6.6,0.3-14.5,0.5-17.5c2.1-20.6,12.4-36.1,28.2-42.1c6.5-2.5,10.3-2.8,29.1-2.9h17.3v18.7v18.7l-11.1,0.2c-9.9,0.2-11.5,0.4-14.2,1.4c-5.7,2.3-8.9,5.6-10.7,11.4c-1,2.9-1.2,5.1-1.4,13.8l-0.2,10.4h18.7h18.8l-3.8,18.8l-3.8,18.8h-14.9h-15v43.8v43.8l10.1-0.3c7.2-0.2,11.3-0.6,14.6-1.3c13.4-3.2,24-9,33.5-18.6c9.5-9.5,15.2-19.7,18.7-33.5c1.1-4.5,1.1-5.6,1.3-61.8c0.2-63.6,0.2-63.1-3.3-73.6C239,46.1,234,38.1,226,30.1c-10.5-10.5-23.2-17-37.3-19.3C181.5,9.6,74,9.6,67,10.8z"/></g></g></g>
</svg>